<svg width="19" height="23" viewBox="0 0 19 23" fill="none" xmlns="http://www.w3.org/2000/svg">
<path d="M15.0365 7.60371C17.0057 8.93554 17.9902 9.60145 18.3345 10.4379C18.6356 11.1693 18.6356 11.9901 18.3345 12.7215C17.9902 13.558 17.0057 14.2239 15.0365 15.5557L8.4552 20.0069C6.02504 21.6505 4.80996 22.4723 3.80124 22.4168C2.92259 22.3685 2.10946 21.9368 1.57716 21.2361C0.966065 20.4316 0.966066 18.9647 0.966066 16.0309L0.966066 7.12849C0.966066 4.1947 0.966066 2.7278 1.57716 1.92334C2.10946 1.22261 2.92259 0.790922 3.80124 0.742575C4.80996 0.687071 6.02504 1.50888 8.4552 3.1525L15.0365 7.60371Z" fill="#D9D9D9"/>
</svg>
